{
  "accessors": [
    {
      "bufferView": 2,
      "componentType": 5126,
      "count": 133,
      "max": [
        30.000001907348633,
        20.000015258789063,
        30.000001907348633
      ],
      "min": [
        -30.000001907348633,
        -3.725290298461914e-07,
        -30.000001907348633
      ],
      "type": "VEC3"
    },
    {
      "bufferView": 2,
      "byteOffset": 1596,
      "componentType": 5126,
      "count": 133,
      "max": [
        1.0,
        1.0,
        1.0
      ],
      "min": [
        -1.0,
        0.0,
        -1.0
      ],
      "type": "VEC3"
    },
    {
      "bufferView": 3,
      "componentType": 5126,
      "count": 133,
      "max": [
        1.0,
        0.9231212735176086,
        1.0,
        1.0
      ],
      "min": [
        -1.0,
        -0.9231216907501221,
        -1.0,
        1.0
      ],
      "type": "VEC4"
    },
    {
      "bufferView": 1,
      "componentType": 5126,
      "count": 133,
      "max": [
        0.8923202753067017,
        0.9107697606086731
      ],
      "min": [
        0.1251174360513687,
        0.00667959451675415
      ],
      "type": "VEC2"
    },
    {
      "bufferView": 0,
      "componentType": 5125,
      "count": 480,
      "type": "SCALAR"
    },
    {
      "bufferView": 2,
      "byteOffset": 3192,
      "componentType": 5126,
      "count": 340,
      "max": [
        40.0,
        6.500000476837158,
        40.0
      ],
      "min": [
        -40.0,
        0.0,
        -40.0
      ],
      "type": "VEC3"
    },
    {
      "bufferView": 2,
      "byteOffset": 7272,
      "componentType": 5126,
      "count": 340,
      "max": [
        1.0,
        0.9785715341567993,
        1.0
      ],
      "min": [
        -1.0,
        0.0,
        -1.0
      ],
      "type": "VEC3"
    },
    {
      "bufferView": 3,
      "byteOffset": 2128,
      "componentType": 5126,
      "count": 340,
      "max": [
        0.46426868438720703,
        0.9997365474700928,
        0.9785259962081909,
        1.0
      ],
      "min": [
        -0.4703981280326843,
        -0.9996059536933899,
        1.6055147211702092e-09,
        1.0
      ],
      "type": "VEC4"
    },
    {
      "bufferView": 1,
      "byteOffset": 1064,
      "componentType": 5126,
      "count": 340,
      "max": [
        0.8933000564575195,
        0.9919888377189636
      ],
      "min": [
        0.1340114176273346,
        0.33327770233154297
      ],
      "type": "VEC2"
    },
    {
      "bufferView": 0,
      "byteOffset": 1920,
      "componentType": 5125,
      "count": 1728,
      "type": "SCALAR"
    }
  ],
  "asset": {
    "extras": {
      "author": "Da-Luna (https://sketchfab.com/da-luna)",
      "license": "CC-BY-4.0 (http://creativecommons.org/licenses/by/4.0/)",
      "source": "https://sketchfab.com/3d-models/button-round-flat-c7e7966f8a7c49b8a7bae8974d08e120",
      "title": "Button Round Flat"
    },
    "generator": "Sketchfab-14.70.0",
    "version": "2.0"
  },
  "bufferViews": [
    {
      "buffer": 0,
      "byteLength": 8832,
      "name": "floatBufferViews",
      "target": 34963
    },
    {
      "buffer": 0,
      "byteLength": 3784,
      "byteOffset": 8832,
      "byteStride": 8,
      "name": "floatBufferViews",
      "target": 34962
    },
    {
      "buffer": 0,
      "byteLength": 11352,
      "byteOffset": 12616,
      "byteStride": 12,
      "name": "floatBufferViews",
      "target": 34962
    },
    {
      "buffer": 0,
      "byteLength": 7568,
      "byteOffset": 23968,
      "byteStride": 16,
      "name": "floatBufferViews",
      "target": 34962
    }
  ],
  "buffers": [
    {
      "byteLength": 31536,
      "uri": "scene.bin"
    }
  ],
  "extensionsUsed": [
    "KHR_materials_specular"
  ],
  "images": [
    {
      "uri": "textures/Button_Cyrcle_1_baseColor.png"
    },
    {
      "uri": "textures/Button_Cyrcle_1_metallicRoughness.png"
    },
    {
      "uri": "textures/Button_Cyrcle_1_normal.png"
    }
  ],
  "materials": [
    {
      "doubleSided": true,
      "extensions": {
        "KHR_materials_specular": {
          "specularColorFactor": [
            1.0,
            1.0,
            1.0
          ],
          "specularFactor": 0.0
        }
      },
      "name": "Button_Cyrcle_1",
      "normalTexture": {
        "index": 2
      },
      "occlusionTexture": {
        "index": 1
      },
      "pbrMetallicRoughness": {
        "baseColorTexture": {
          "index": 0
        },
        "metallicFactor": 0.5,
        "metallicRoughnessTexture": {
          "index": 1
        },
        "roughnessFactor": 0.0
      }
    }
  ],
  "meshes": [
    {
      "name": "Button_Cyrcle_1_Button_Button_Cyrcle_1_0",
      "primitives": [
        {
          "attributes": {
            "NORMAL": 1,
            "POSITION": 0,
            "TANGENT": 2,
            "TEXCOORD_0": 3
          },
          "indices": 4,
          "material": 0,
          "mode": 4
        }
      ]
    },
    {
      "name": "Button_Cyrcle_1_Frame_Button_Cyrcle_1_0",
      "primitives": [
        {
          "attributes": {
            "NORMAL": 6,
            "POSITION": 5,
            "TANGENT": 7,
            "TEXCOORD_0": 8
          },
          "indices": 9,
          "material": 0,
          "mode": 4
        }
      ]
    }
  ],
  "nodes": [
    {
      "children": [
        1
      ],
      "matrix": [
        1.0,
        0.0,
        0.0,
        0.0,
        0.0,
        2.220446049250313e-16,
        -1.0,
        0.0,
        0.0,
        1.0,
        2.220446049250313e-16,
        0.0,
        0.0,
        0.0,
        0.0,
        1.0
      ],
      "name": "Sketchfab_model"
    },
    {
      "children": [
        2
      ],
      "matrix": [
        0.009999999776482582,
        0.0,
        0.0,
        0.0,
        0.0,
        0.0,
        0.009999999776482582,
        0.0,
        0.0,
        -0.009999999776482582,
        0.0,
        0.0,
        0.0,
        0.0,
        0.0,
        1.0
      ],
      "name": "Buttons_Cyrcle_1.fbx"
    },
    {
      "children": [
        3,
        5
      ],
      "name": "RootNode"
    },
    {
      "children": [
        4
      ],
      "matrix": [
        1.0,
        0.0,
        0.0,
        0.0,
        0.0,
        1.0,
        0.0,
        0.0,
        0.0,
        0.0,
        1.0,
        0.0,
        -100.0,
        0.0,
        0.0,
        1.0
      ],
      "name": "Button_Cyrcle_1_Button"
    },
    {
      "mesh": 0,
      "name": "Button_Cyrcle_1_Button_Button_Cyrcle_1_0"
    },
    {
      "children": [
        6
      ],
      "matrix": [
        1.0,
        0.0,
        0.0,
        0.0,
        0.0,
        1.0,
        0.0,
        0.0,
        0.0,
        0.0,
        1.0,
        0.0,
        -100.0,
        0.0,
        0.0,
        1.0
      ],
      "name": "Button_Cyrcle_1_Frame"
    },
    {
      "mesh": 1,
      "name": "Button_Cyrcle_1_Frame_Button_Cyrcle_1_0"
    }
  ],
  "samplers": [
    {
      "magFilter": 9729,
      "minFilter": 9987,
      "wrapS": 10497,
      "wrapT": 10497
    }
  ],
  "scene": 0,
  "scenes": [
    {
      "name": "Sketchfab_Scene",
      "nodes": [
        0
      ]
    }
  ],
  "textures": [
    {
      "sampler": 0,
      "source": 0
    },
    {
      "sampler": 0,
      "source": 1
    },
    {
      "sampler": 0,
      "source": 2
    }
  ]
}
